<svg id="svg" version="1.1" xmlns="http://www.w3.org/2000/svg" xmlns:xlink="http://www.w3.org/1999/xlink" width="400" height="300" viewBox="0, 0, 400,300"><g id="svgg"><path id="path0" d="M141.463 200.186 C 141.400 200.288,140.404 200.464,139.248 200.578 C 138.093 200.692,137.069 200.912,136.973 201.068 C 136.877 201.223,136.410 201.350,135.934 201.350 C 135.458 201.350,134.993 201.474,134.900 201.624 C 134.807 201.775,134.191 201.989,133.532 202.101 C 132.873 202.212,132.333 202.426,132.333 202.577 C 132.333 202.728,132.071 202.851,131.751 202.851 C 131.430 202.851,131.094 202.970,131.004 203.117 C 130.913 203.263,130.365 203.472,129.786 203.580 C 129.206 203.689,128.732 203.907,128.732 204.065 C 128.732 204.222,128.575 204.351,128.383 204.351 C 127.823 204.351,125.731 205.343,125.731 205.609 C 125.731 205.742,125.529 205.851,125.281 205.851 C 125.034 205.851,124.831 205.972,124.831 206.119 C 124.831 206.266,124.494 206.471,124.081 206.575 C 123.668 206.678,123.331 206.896,123.331 207.057 C 123.331 207.219,123.128 207.352,122.881 207.352 C 122.633 207.352,122.431 207.474,122.431 207.623 C 122.431 207.771,122.024 208.035,121.526 208.208 C 121.029 208.382,120.542 208.733,120.444 208.988 C 120.346 209.243,120.084 209.452,119.862 209.452 C 119.639 209.452,119.147 209.757,118.768 210.128 C 118.389 210.500,117.472 211.276,116.729 211.852 C 115.202 213.037,111.334 216.976,111.330 217.349 C 111.329 217.484,110.855 218.040,110.278 218.585 C 109.700 219.130,109.227 219.729,109.227 219.915 C 109.227 220.102,109.095 220.255,108.933 220.255 C 108.771 220.255,108.554 220.593,108.450 221.005 C 108.347 221.418,108.151 221.755,108.015 221.755 C 107.879 221.755,107.689 222.002,107.594 222.303 C 107.498 222.604,107.181 223.110,106.888 223.428 C 106.305 224.062,105.326 226.004,105.326 226.527 C 105.326 226.708,105.223 226.857,105.097 226.857 C 104.856 226.857,103.826 229.047,103.826 229.559 C 103.826 229.723,103.723 229.857,103.596 229.857 C 103.330 229.857,102.326 232.557,102.326 233.274 C 102.326 233.540,102.206 233.758,102.060 233.758 C 101.783 233.758,101.688 234.107,101.073 237.359 C 100.870 238.432,100.613 239.377,100.501 239.460 C 99.546 240.166,99.598 260.765,100.555 260.765 C 100.704 260.765,100.831 261.204,100.838 261.740 C 100.846 262.277,101.046 263.256,101.284 263.916 C 101.522 264.576,101.718 265.353,101.721 265.641 C 101.723 265.930,101.845 266.167,101.991 266.167 C 102.138 266.167,102.348 266.771,102.459 267.510 C 102.570 268.249,102.788 268.932,102.943 269.028 C 103.099 269.124,103.226 269.454,103.226 269.760 C 103.226 270.067,103.327 270.363,103.451 270.418 C 103.777 270.563,104.726 272.442,104.726 272.943 C 104.726 273.177,104.850 273.368,105.002 273.368 C 105.154 273.368,105.368 273.773,105.476 274.269 C 105.585 274.764,105.783 275.169,105.915 275.169 C 106.048 275.169,106.243 275.405,106.349 275.694 C 106.743 276.768,107.491 277.913,107.903 278.071 C 108.136 278.160,108.327 278.483,108.327 278.787 C 108.327 279.091,108.510 279.448,108.733 279.580 C 108.957 279.712,109.193 279.970,109.258 280.154 C 109.561 281.005,116.648 288.672,117.131 288.672 C 117.255 288.672,117.682 288.976,118.079 289.347 C 119.114 290.315,119.683 290.773,119.852 290.773 C 119.933 290.773,120.363 291.110,120.809 291.523 C 121.254 291.935,121.801 292.273,122.024 292.273 C 122.248 292.273,122.431 292.392,122.431 292.538 C 122.431 292.684,122.667 292.883,122.956 292.980 C 123.549 293.179,124.604 293.822,124.834 294.125 C 124.918 294.235,125.357 294.419,125.809 294.532 C 126.262 294.646,126.632 294.859,126.632 295.006 C 126.632 295.153,126.902 295.274,127.232 295.274 C 127.562 295.274,127.832 295.398,127.832 295.550 C 127.832 295.702,128.237 295.915,128.732 296.024 C 129.227 296.133,129.632 296.346,129.632 296.498 C 129.632 296.650,129.895 296.774,130.215 296.774 C 130.535 296.774,130.876 296.901,130.972 297.057 C 131.068 297.212,131.751 297.430,132.490 297.541 C 133.229 297.652,133.833 297.862,133.833 298.009 C 133.833 298.155,134.171 298.275,134.584 298.275 C 134.996 298.275,135.334 298.396,135.334 298.545 C 135.334 298.694,136.178 298.913,137.209 299.031 C 138.241 299.150,139.181 299.400,139.299 299.586 C 139.601 300.064,160.274 300.065,160.869 299.587 C 161.101 299.401,162.067 299.155,163.016 299.040 C 163.965 298.925,164.741 298.706,164.741 298.553 C 164.741 298.400,165.079 298.275,165.491 298.275 C 165.904 298.275,166.242 298.157,166.242 298.013 C 166.242 297.869,166.788 297.664,167.455 297.557 C 168.585 297.376,169.793 296.873,170.143 296.437 C 170.225 296.334,170.731 296.154,171.268 296.038 C 171.804 295.921,172.243 295.702,172.243 295.550 C 172.243 295.398,172.446 295.274,172.693 295.274 C 172.941 295.274,173.143 295.154,173.143 295.007 C 173.143 294.860,173.616 294.652,174.194 294.543 C 174.771 294.435,175.244 294.217,175.244 294.060 C 175.244 293.902,175.446 293.773,175.694 293.773 C 175.941 293.773,176.144 293.641,176.144 293.479 C 176.144 293.317,176.482 293.100,176.894 292.996 C 177.307 292.893,177.644 292.688,177.644 292.541 C 177.644 292.393,177.789 292.273,177.966 292.273 C 178.143 292.273,178.476 292.104,178.706 291.898 C 179.614 291.083,180.028 290.773,180.204 290.773 C 180.305 290.773,180.569 290.604,180.791 290.398 C 181.012 290.191,181.638 289.685,182.182 289.272 C 183.384 288.361,188.747 283.102,188.747 282.836 C 188.747 282.592,189.312 281.902,190.173 281.095 C 190.544 280.747,190.848 280.279,190.848 280.056 C 190.848 279.834,191.050 279.573,191.298 279.478 C 191.545 279.383,191.748 279.064,191.748 278.770 C 191.748 278.475,191.950 278.156,192.198 278.061 C 192.446 277.966,192.648 277.646,192.648 277.351 C 192.648 277.055,192.906 276.652,193.221 276.456 C 193.537 276.259,193.885 275.686,193.995 275.183 C 194.106 274.680,194.321 274.269,194.472 274.269 C 194.624 274.269,194.749 274.066,194.749 273.818 C 194.749 273.571,194.869 273.368,195.015 273.368 C 195.162 273.368,195.371 272.896,195.479 272.318 C 195.587 271.740,195.773 271.268,195.892 271.268 C 196.194 271.268,197.149 268.988,197.149 268.265 C 197.149 267.936,197.284 267.667,197.449 267.667 C 197.614 267.667,197.749 267.329,197.749 266.917 C 197.749 266.504,197.872 266.167,198.021 266.167 C 198.171 266.167,198.386 265.491,198.500 264.666 C 198.613 263.841,198.828 263.166,198.978 263.166 C 199.127 263.166,199.250 262.637,199.250 261.990 C 199.250 261.344,199.386 260.770,199.553 260.714 C 199.719 260.659,199.942 259.095,200.049 257.238 C 200.155 255.382,200.356 253.863,200.496 253.863 C 200.636 253.863,200.750 241.779,200.750 227.010 L 200.750 200.156 171.164 200.078 C 154.892 200.035,141.526 200.084,141.463 200.186 " stroke="none" fill="#04d384" fill-rule="evenodd"></path><path id="path1" d="M141.035 100.169 C 140.293 100.221,139.557 100.389,139.400 100.544 C 139.243 100.699,138.602 100.825,137.974 100.825 C 137.347 100.825,136.834 100.943,136.834 101.087 C 136.834 101.230,136.159 101.438,135.334 101.547 C 134.509 101.657,133.833 101.876,133.833 102.036 C 133.833 102.195,133.496 102.326,133.083 102.326 C 132.671 102.326,132.333 102.443,132.333 102.587 C 132.333 102.731,131.793 102.935,131.133 103.041 C 130.473 103.147,129.932 103.366,129.932 103.529 C 129.932 103.693,129.662 103.826,129.332 103.826 C 129.002 103.826,128.732 103.961,128.732 104.126 C 128.732 104.291,128.549 104.426,128.324 104.426 C 127.718 104.426,124.156 106.289,123.596 106.899 C 123.329 107.189,122.908 107.427,122.662 107.427 C 122.415 107.427,121.688 107.844,121.047 108.353 C 120.405 108.863,119.497 109.572,119.029 109.929 C 118.561 110.286,117.996 110.746,117.775 110.953 C 117.553 111.159,117.299 111.328,117.209 111.328 C 116.929 111.328,112.444 115.908,111.034 117.634 C 110.294 118.539,109.585 119.325,109.458 119.380 C 109.331 119.435,109.227 119.671,109.227 119.905 C 109.227 120.139,109.095 120.330,108.933 120.330 C 108.771 120.330,108.554 120.668,108.450 121.080 C 108.347 121.493,108.171 121.830,108.059 121.830 C 107.948 121.830,107.601 122.269,107.289 122.806 C 106.977 123.342,106.644 123.848,106.549 123.931 C 106.172 124.259,105.326 126.002,105.326 126.453 C 105.326 126.716,105.191 126.932,105.026 126.932 C 104.861 126.932,104.726 127.134,104.726 127.382 C 104.726 127.629,104.602 127.832,104.450 127.832 C 104.298 127.832,104.079 128.271,103.962 128.807 C 103.846 129.344,103.657 129.850,103.543 129.932 C 103.214 130.170,102.326 132.583,102.326 133.239 C 102.326 133.566,102.206 133.833,102.060 133.833 C 101.913 133.833,101.717 134.205,101.622 134.659 C 101.187 136.760,100.618 139.126,100.451 139.535 C 99.560 141.708,99.560 158.367,100.451 160.540 C 100.618 160.949,101.187 163.315,101.622 165.416 C 101.717 165.870,101.913 166.242,102.060 166.242 C 102.206 166.242,102.326 166.509,102.326 166.836 C 102.326 167.492,103.214 169.905,103.543 170.143 C 103.657 170.225,103.846 170.731,103.962 171.268 C 104.079 171.804,104.298 172.243,104.450 172.243 C 104.602 172.243,104.726 172.446,104.726 172.693 C 104.726 172.941,104.861 173.143,105.026 173.143 C 105.191 173.143,105.326 173.365,105.326 173.636 C 105.326 174.168,107.653 178.030,108.073 178.195 C 108.213 178.250,108.327 178.465,108.327 178.674 C 108.327 178.882,108.563 179.335,108.852 179.680 C 109.141 180.025,110.051 181.159,110.874 182.201 C 112.328 184.042,116.882 188.747,117.209 188.747 C 117.299 188.747,117.560 188.916,117.790 189.122 C 119.255 190.436,122.372 192.648,122.758 192.648 C 122.952 192.648,123.329 192.884,123.596 193.173 C 124.190 193.816,127.659 195.649,128.281 195.649 C 128.529 195.649,128.732 195.784,128.732 195.949 C 128.732 196.114,129.002 196.249,129.332 196.249 C 129.662 196.249,129.932 196.383,129.932 196.546 C 129.932 196.709,130.473 196.928,131.133 197.034 C 131.793 197.140,132.333 197.344,132.333 197.488 C 132.333 197.632,132.671 197.749,133.083 197.749 C 133.496 197.749,133.833 197.880,133.833 198.039 C 133.833 198.199,134.512 198.419,135.341 198.529 C 136.169 198.639,136.920 198.846,137.009 198.989 C 137.097 199.133,137.540 199.250,137.992 199.250 C 138.445 199.250,138.983 199.419,139.190 199.625 C 139.484 199.919,146.181 200.019,170.176 200.087 L 200.787 200.174 200.604 178.932 C 200.377 152.489,200.377 147.439,200.604 121.453 C 200.754 104.328,200.716 100.494,200.394 100.375 C 199.960 100.215,143.205 100.018,141.035 100.169 M247.637 100.149 C 249.246 100.203,251.879 100.203,253.488 100.149 C 255.098 100.095,253.781 100.051,250.563 100.051 C 247.344 100.051,246.028 100.095,247.637 100.149 " stroke="none" fill="#a35cfb" fill-rule="evenodd"></path><path id="path2" d="M248.462 100.243 C 240.306 100.462,236.759 100.733,236.759 101.139 C 236.759 101.265,236.084 101.462,235.259 101.575 C 234.434 101.689,233.683 101.904,233.591 102.054 C 233.499 102.203,233.161 102.326,232.841 102.326 C 232.520 102.326,232.258 102.443,232.258 102.587 C 232.258 102.731,231.718 102.935,231.058 103.041 C 230.398 103.147,229.857 103.366,229.857 103.529 C 229.857 103.693,229.676 103.826,229.453 103.826 C 229.007 103.826,227.420 104.516,226.257 105.217 C 225.844 105.465,225.135 105.824,224.681 106.013 C 224.227 106.203,223.856 106.464,223.856 106.592 C 223.856 106.721,223.653 106.827,223.406 106.827 C 223.158 106.827,222.956 106.953,222.956 107.107 C 222.956 107.260,222.663 107.479,222.306 107.593 C 221.949 107.706,221.335 108.120,220.942 108.513 C 220.549 108.906,220.093 109.227,219.928 109.227 C 219.763 109.227,219.290 109.565,218.877 109.977 C 218.465 110.390,218.023 110.728,217.896 110.728 C 217.544 110.728,212.100 116.141,211.094 117.492 C 210.607 118.145,209.991 118.882,209.724 119.130 C 209.457 119.377,209.142 119.884,209.025 120.255 C 208.908 120.626,208.707 120.930,208.579 120.930 C 208.451 120.930,208.089 121.437,207.774 122.056 C 207.459 122.674,206.975 123.391,206.697 123.649 C 206.419 123.906,206.101 124.480,205.989 124.924 C 205.878 125.368,205.666 125.731,205.519 125.731 C 205.372 125.731,205.251 126.002,205.251 126.332 C 205.251 126.662,205.127 126.932,204.975 126.932 C 204.823 126.932,204.610 127.337,204.501 127.832 C 204.392 128.327,204.179 128.732,204.027 128.732 C 203.875 128.732,203.751 129.002,203.751 129.332 C 203.751 129.662,203.617 129.932,203.454 129.932 C 203.291 129.932,203.072 130.473,202.966 131.133 C 202.860 131.793,202.656 132.333,202.512 132.333 C 202.368 132.333,202.251 132.671,202.251 133.083 C 202.251 133.496,202.131 133.833,201.985 133.833 C 201.838 133.833,201.623 134.475,201.506 135.259 C 201.390 136.043,201.188 136.819,201.059 136.984 C 199.899 138.466,199.899 161.609,201.059 163.091 C 201.188 163.256,201.390 164.032,201.506 164.816 C 201.623 165.600,201.838 166.242,201.985 166.242 C 202.131 166.242,202.251 166.579,202.251 166.992 C 202.251 167.404,202.368 167.742,202.512 167.742 C 202.656 167.742,202.860 168.282,202.966 168.942 C 203.072 169.602,203.291 170.143,203.454 170.143 C 203.617 170.143,203.751 170.413,203.751 170.743 C 203.751 171.073,203.875 171.343,204.027 171.343 C 204.179 171.343,204.392 171.748,204.501 172.243 C 204.610 172.738,204.823 173.143,204.975 173.143 C 205.127 173.143,205.251 173.413,205.251 173.743 C 205.251 174.074,205.372 174.344,205.519 174.344 C 205.666 174.344,205.878 174.707,205.989 175.151 C 206.101 175.595,206.419 176.169,206.697 176.426 C 206.975 176.684,207.459 177.401,207.774 178.020 C 208.089 178.638,208.451 179.145,208.579 179.145 C 208.707 179.145,208.908 179.449,209.025 179.820 C 209.142 180.191,209.457 180.698,209.724 180.945 C 209.991 181.193,210.607 181.930,211.094 182.583 C 212.100 183.934,217.544 189.347,217.896 189.347 C 218.023 189.347,218.465 189.685,218.877 190.098 C 219.290 190.510,219.763 190.848,219.928 190.848 C 220.093 190.848,220.549 191.169,220.942 191.562 C 221.335 191.955,221.949 192.369,222.306 192.482 C 222.663 192.596,222.956 192.815,222.956 192.968 C 222.956 193.122,223.158 193.248,223.406 193.248 C 223.653 193.248,223.856 193.354,223.856 193.483 C 223.856 193.611,224.227 193.872,224.681 194.062 C 225.135 194.251,225.844 194.610,226.257 194.858 C 227.420 195.559,229.007 196.249,229.453 196.249 C 229.676 196.249,229.857 196.383,229.857 196.546 C 229.857 196.709,230.398 196.928,231.058 197.034 C 231.718 197.140,232.258 197.344,232.258 197.488 C 232.258 197.632,232.520 197.749,232.841 197.749 C 233.161 197.749,233.499 197.872,233.591 198.021 C 233.683 198.171,234.434 198.386,235.259 198.500 C 236.084 198.613,236.759 198.828,236.759 198.978 C 236.759 199.127,237.205 199.250,237.749 199.250 C 238.294 199.250,238.872 199.382,239.034 199.544 C 239.196 199.706,240.713 199.929,242.405 200.040 C 244.098 200.151,245.553 200.356,245.640 200.496 C 245.845 200.828,254.080 200.828,254.285 200.496 C 254.372 200.356,255.820 200.158,257.504 200.055 C 259.188 199.953,260.705 199.730,260.876 199.559 C 261.046 199.389,261.631 199.250,262.176 199.250 C 262.720 199.250,263.166 199.132,263.166 198.988 C 263.166 198.845,263.835 198.638,264.654 198.530 C 265.472 198.421,266.223 198.201,266.322 198.041 C 266.421 197.881,266.764 197.749,267.084 197.749 C 267.405 197.749,267.667 197.614,267.667 197.449 C 267.667 197.284,267.971 197.148,268.342 197.147 C 268.713 197.146,269.404 196.944,269.877 196.697 C 270.349 196.451,270.923 196.249,271.152 196.249 C 271.381 196.249,271.568 196.129,271.568 195.982 C 271.568 195.834,271.923 195.625,272.357 195.516 C 272.790 195.407,273.632 194.987,274.227 194.583 C 274.822 194.179,275.409 193.848,275.533 193.848 C 275.893 193.848,278.907 191.855,279.345 191.328 C 279.564 191.064,279.868 190.848,280.020 190.848 C 280.173 190.848,280.635 190.510,281.048 190.098 C 281.460 189.685,281.916 189.347,282.060 189.347 C 282.390 189.347,288.671 183.166,288.675 182.838 C 288.676 182.705,289.149 182.098,289.725 181.490 C 290.301 180.883,290.773 180.241,290.773 180.065 C 290.773 179.889,290.899 179.745,291.053 179.745 C 291.206 179.745,291.428 179.441,291.546 179.070 C 291.663 178.698,292.010 178.176,292.316 177.909 C 292.622 177.642,292.873 177.281,292.873 177.106 C 292.873 176.930,293.042 176.606,293.248 176.385 C 293.849 175.741,294.674 174.143,294.674 173.622 C 294.674 173.359,294.809 173.143,294.974 173.143 C 295.139 173.143,295.274 172.941,295.274 172.693 C 295.274 172.446,295.398 172.243,295.550 172.243 C 295.702 172.243,295.921 171.804,296.038 171.268 C 296.154 170.731,296.343 170.225,296.457 170.143 C 296.786 169.905,297.674 167.492,297.674 166.836 C 297.674 166.509,297.809 166.242,297.974 166.242 C 298.140 166.242,298.275 165.912,298.275 165.509 C 298.275 165.106,298.396 164.701,298.545 164.609 C 298.694 164.517,298.910 163.632,299.025 162.641 C 299.140 161.651,299.342 160.840,299.475 160.840 C 299.943 160.840,300.142 157.614,300.142 150.038 C 300.142 142.461,299.943 139.235,299.475 139.235 C 299.342 139.235,299.140 138.424,299.025 137.434 C 298.910 136.443,298.694 135.558,298.545 135.466 C 298.396 135.374,298.275 134.969,298.275 134.566 C 298.275 134.163,298.140 133.833,297.974 133.833 C 297.809 133.833,297.674 133.566,297.674 133.239 C 297.674 132.583,296.786 130.170,296.457 129.932 C 296.343 129.850,296.154 129.344,296.038 128.807 C 295.921 128.271,295.702 127.832,295.550 127.832 C 295.398 127.832,295.274 127.629,295.274 127.382 C 295.274 127.134,295.139 126.932,294.974 126.932 C 294.809 126.932,294.674 126.716,294.674 126.453 C 294.674 125.932,293.849 124.334,293.248 123.690 C 293.042 123.469,292.873 123.145,292.873 122.970 C 292.873 122.794,292.622 122.433,292.316 122.166 C 292.010 121.899,291.663 121.377,291.546 121.005 C 291.428 120.634,291.206 120.330,291.053 120.330 C 290.899 120.330,290.773 120.186,290.773 120.010 C 290.773 119.834,290.301 119.193,289.725 118.585 C 289.149 117.977,288.676 117.370,288.675 117.237 C 288.671 116.909,282.390 110.728,282.060 110.728 C 281.916 110.728,281.460 110.390,281.048 109.977 C 280.635 109.565,280.173 109.227,280.020 109.227 C 279.868 109.227,279.564 109.011,279.345 108.747 C 278.907 108.220,275.893 106.227,275.533 106.227 C 275.409 106.227,274.822 105.896,274.227 105.492 C 273.632 105.088,272.790 104.668,272.357 104.559 C 271.923 104.450,271.568 104.241,271.568 104.094 C 271.568 103.946,271.381 103.826,271.152 103.826 C 270.923 103.826,270.349 103.624,269.877 103.378 C 269.404 103.131,268.713 102.929,268.342 102.928 C 267.971 102.927,267.667 102.791,267.667 102.626 C 267.667 102.461,267.405 102.326,267.084 102.326 C 266.764 102.326,266.421 102.194,266.322 102.034 C 266.223 101.874,265.472 101.654,264.654 101.545 C 263.835 101.437,263.166 101.230,263.166 101.087 C 263.166 100.943,262.720 100.825,262.176 100.825 C 261.631 100.825,261.057 100.706,260.900 100.561 C 260.418 100.114,256.761 100.021,248.462 100.243 " stroke="none" fill="#14bbfb" fill-rule="evenodd"></path><path id="path3" d="M200.145 49.578 C 200.143 76.856,200.034 99.343,199.904 99.548 C 199.718 99.841,193.570 99.939,171.476 100.000 L 143.286 100.078 171.850 100.152 C 190.490 100.200,200.479 100.329,200.600 100.525 C 200.857 100.941,238.341 100.934,239.762 100.519 C 240.338 100.350,245.199 100.085,250.563 99.929 C 255.926 99.773,260.855 99.495,261.515 99.311 C 262.176 99.126,263.089 98.903,263.545 98.815 C 264.000 98.727,264.447 98.536,264.538 98.390 C 264.628 98.244,264.977 98.125,265.314 98.125 C 265.650 98.125,266.351 97.940,266.871 97.715 C 267.391 97.490,268.357 97.095,269.017 96.838 C 271.601 95.832,272.168 95.570,272.168 95.383 C 272.168 95.276,272.523 95.100,272.957 94.991 C 273.391 94.882,274.232 94.462,274.827 94.058 C 275.422 93.654,276.079 93.323,276.289 93.323 C 276.498 93.323,276.669 93.188,276.669 93.023 C 276.669 92.858,276.872 92.723,277.119 92.723 C 277.367 92.723,277.569 92.597,277.569 92.443 C 277.569 92.289,277.862 92.071,278.219 91.957 C 278.577 91.844,279.190 91.430,279.583 91.037 C 279.976 90.644,280.426 90.323,280.584 90.323 C 280.741 90.323,281.401 89.816,282.050 89.197 C 282.698 88.578,283.793 87.599,284.483 87.022 C 285.873 85.858,285.824 85.908,287.399 84.040 C 288.017 83.308,288.893 82.324,289.347 81.854 C 289.801 81.384,290.173 80.802,290.173 80.560 C 290.173 80.318,290.281 80.120,290.414 80.120 C 290.741 80.120,292.869 77.047,293.947 75.019 C 294.429 74.111,294.925 73.323,295.049 73.268 C 295.173 73.213,295.274 73.037,295.274 72.877 C 295.274 72.716,295.527 72.019,295.837 71.326 C 297.311 68.031,297.674 67.102,297.674 66.629 C 297.674 66.347,297.769 66.022,297.885 65.906 C 298.222 65.569,299.166 62.336,299.170 61.500 C 299.173 61.080,299.297 60.607,299.446 60.450 C 300.575 59.262,300.595 42.489,299.470 39.760 C 299.334 39.430,299.137 38.620,299.033 37.959 C 298.759 36.222,298.714 36.049,298.483 35.818 C 298.368 35.703,298.275 35.321,298.275 34.969 C 298.275 34.617,298.167 34.200,298.036 34.044 C 297.904 33.887,297.619 33.218,297.401 32.558 C 296.664 30.323,293.817 24.309,293.493 24.303 C 293.400 24.301,293.065 23.761,292.750 23.102 C 292.435 22.444,292.063 21.905,291.925 21.905 C 291.786 21.905,291.673 21.735,291.673 21.527 C 291.673 21.319,291.330 20.779,290.911 20.327 C 290.491 19.875,290.233 19.505,290.336 19.505 C 290.439 19.505,289.738 18.593,288.778 17.479 C 286.901 15.301,283.275 11.703,282.957 11.703 C 282.850 11.703,282.297 11.264,281.728 10.728 C 280.231 9.317,278.993 8.402,278.580 8.402 C 278.382 8.402,278.175 8.284,278.120 8.140 C 277.974 7.757,274.033 5.401,273.538 5.401 C 273.307 5.401,273.073 5.300,273.018 5.176 C 272.861 4.822,271.076 3.901,270.546 3.901 C 270.283 3.901,270.068 3.766,270.068 3.601 C 270.068 3.436,269.880 3.301,269.652 3.301 C 269.423 3.301,268.849 3.099,268.376 2.853 C 267.904 2.606,267.236 2.403,266.892 2.402 C 266.548 2.401,266.174 2.308,266.061 2.195 C 265.691 1.825,263.647 1.214,262.116 1.015 C 261.290 0.908,260.426 0.670,260.194 0.485 C 259.892 0.245,251.349 0.126,229.962 0.065 L 200.150 -0.019 200.145 49.578 " stroke="none" fill="#fc7464" fill-rule="evenodd"></path><path id="path4" d="M140.589 0.223 C 139.931 0.290,139.256 0.453,139.089 0.585 C 138.921 0.718,138.008 0.920,137.059 1.035 C 136.110 1.150,135.334 1.369,135.334 1.522 C 135.334 1.675,135.004 1.800,134.601 1.800 C 134.198 1.800,133.790 1.928,133.694 2.083 C 133.598 2.239,132.915 2.457,132.176 2.567 C 131.437 2.678,130.833 2.889,130.833 3.035 C 130.833 3.181,130.563 3.301,130.233 3.301 C 129.902 3.301,129.632 3.436,129.632 3.601 C 129.632 3.766,129.498 3.901,129.334 3.901 C 128.850 3.901,126.632 4.925,126.632 5.148 C 126.632 5.261,126.227 5.443,125.731 5.551 C 125.236 5.660,124.831 5.873,124.831 6.025 C 124.831 6.177,124.693 6.302,124.524 6.302 C 124.049 6.302,120.330 8.721,120.330 9.029 C 120.330 9.179,120.189 9.302,120.017 9.302 C 119.690 9.302,119.282 9.602,118.079 10.728 C 117.682 11.099,117.262 11.403,117.145 11.403 C 116.865 11.403,111.343 16.891,111.334 17.179 C 111.331 17.302,110.855 17.904,110.278 18.516 C 109.700 19.129,109.227 19.790,109.227 19.985 C 109.227 20.181,109.025 20.419,108.777 20.514 C 108.530 20.609,108.327 20.946,108.327 21.264 C 108.327 21.581,108.136 21.915,107.903 22.004 C 107.491 22.162,106.743 23.307,106.349 24.381 C 106.243 24.670,106.048 24.906,105.915 24.906 C 105.783 24.906,105.585 25.311,105.476 25.806 C 105.368 26.302,105.154 26.707,105.002 26.707 C 104.850 26.707,104.726 26.977,104.726 27.307 C 104.726 27.637,104.602 27.907,104.450 27.907 C 104.298 27.907,104.085 28.312,103.976 28.807 C 103.867 29.302,103.654 29.707,103.502 29.707 C 103.350 29.707,103.226 29.970,103.226 30.290 C 103.226 30.610,103.099 30.951,102.943 31.047 C 102.788 31.143,102.570 31.826,102.459 32.565 C 102.348 33.304,102.138 33.908,101.991 33.908 C 101.845 33.908,101.725 34.238,101.725 34.641 C 101.725 35.044,101.597 35.453,101.439 35.550 C 101.282 35.648,101.062 36.533,100.950 37.519 C 100.839 38.504,100.644 39.310,100.517 39.310 C 99.579 39.310,99.564 59.923,100.501 60.615 C 100.613 60.698,100.870 61.643,101.073 62.716 C 101.688 65.968,101.783 66.317,102.060 66.317 C 102.206 66.317,102.325 66.553,102.324 66.842 C 102.322 67.599,103.300 70.218,103.585 70.218 C 103.718 70.218,103.826 70.352,103.826 70.516 C 103.826 71.028,104.856 73.218,105.097 73.218 C 105.223 73.218,105.326 73.367,105.326 73.548 C 105.326 73.935,106.260 76.001,106.534 76.219 C 106.637 76.302,106.977 76.808,107.289 77.344 C 107.601 77.881,107.948 78.320,108.059 78.320 C 108.171 78.320,108.347 78.657,108.450 79.070 C 108.554 79.482,108.771 79.820,108.933 79.820 C 109.095 79.820,109.227 79.973,109.227 80.160 C 109.227 80.346,109.700 80.945,110.278 81.490 C 110.855 82.035,111.328 82.613,111.328 82.775 C 111.328 83.115,117.004 88.822,117.342 88.822 C 117.465 88.822,118.000 89.227,118.530 89.722 C 119.060 90.218,119.682 90.623,119.912 90.623 C 120.142 90.623,120.330 90.754,120.330 90.915 C 120.330 91.262,123.913 93.608,124.456 93.617 C 124.662 93.621,124.831 93.747,124.831 93.898 C 124.831 94.239,129.642 96.624,130.330 96.624 C 130.607 96.624,130.833 96.759,130.833 96.924 C 130.833 97.089,131.095 97.224,131.415 97.224 C 131.735 97.224,132.074 97.348,132.167 97.498 C 132.260 97.649,132.875 97.863,133.533 97.974 C 134.192 98.086,134.807 98.300,134.900 98.451 C 134.993 98.601,135.458 98.725,135.934 98.725 C 136.410 98.725,136.877 98.852,136.973 99.007 C 137.069 99.163,138.090 99.383,139.242 99.496 C 140.393 99.610,141.335 99.786,141.335 99.889 C 141.335 100.280,199.656 99.939,199.905 99.545 C 200.035 99.342,200.143 76.860,200.145 49.587 L 200.150 0.000 170.968 0.050 C 154.917 0.078,141.247 0.156,140.589 0.223 M299.969 42.611 C 300.206 43.905,300.377 44.149,300.370 43.186 C 300.368 42.787,300.233 42.258,300.071 42.011 C 299.863 41.694,299.833 41.872,299.969 42.611 M300.116 56.615 C 300.093 56.972,299.997 57.513,299.902 57.815 C 299.739 58.335,299.748 58.336,300.072 57.831 C 300.260 57.537,300.357 56.997,300.286 56.631 C 300.157 55.965,300.157 55.965,300.116 56.615 M287.772 83.571 C 287.384 83.983,287.192 84.317,287.345 84.312 C 287.601 84.303,288.838 82.821,288.588 82.821 C 288.527 82.821,288.160 83.158,287.772 83.571 " stroke="none" fill="#f34c1c" fill-rule="evenodd"></path></g></svg>